<svg xmlns="http://www.w3.org/2000/svg" viewBox="0 0 128 128" width="128" height="128" role="img" aria-label="Keska Labs">
  <defs>
    <linearGradient id="keskaGrad" gradientUnits="userSpaceOnUse" x1="14" y1="111" x2="114" y2="17">
      <stop offset="0%" stop-color="#2f80ed" />
      <stop offset="100%" stop-color="#f2994a" />
    </linearGradient>
    <filter id="floatShadow" x="-20%" y="-20%" width="140%" height="140%">
      <feDropShadow dx="0" dy="8" stdDeviation="6" flood-color="#0F172A" flood-opacity="0.25" />
    </filter>
  </defs>
  <g id="registry-base">
    <path d="M 14,82 L 64,107 L 64,111 L 14,86 Z" fill="url(#keskaGrad)" />
    <path d="M 14,82 L 64,107 L 64,111 L 14,86 Z" fill="#0F172A" fill-opacity="0.3" />
    <path d="M 64,107 L 114,82 L 114,86 L 64,111 Z" fill="url(#keskaGrad)" />
    <path d="M 64,107 L 114,82 L 114,86 L 64,111 Z" fill="#0F172A" fill-opacity="0.15" />
    <path d="M 64,57 L 114,82 L 64,107 L 14,82 Z" fill="url(#keskaGrad)" />
    <path d="M 64,57 L 114,82 L 64,107 L 14,82 Z" fill="#0F172A" fill-opacity="0.05" />
    <path d="M 64,57 L 114,82 L 64,107 L 14,82 Z" stroke="#ffffff" stroke-opacity="0.2" stroke-width="0.5" fill="none" stroke-linejoin="round" />
  </g>
  <g id="registry-mid">
    <path d="M 14,72 L 64,97 L 64,101 L 14,76 Z" fill="url(#keskaGrad)" />
    <path d="M 14,72 L 64,97 L 64,101 L 14,76 Z" fill="#0F172A" fill-opacity="0.3" />
    <path d="M 64,97 L 114,72 L 114,76 L 64,101 Z" fill="url(#keskaGrad)" />
    <path d="M 64,97 L 114,72 L 114,76 L 64,101 Z" fill="#0F172A" fill-opacity="0.15" />
    <path d="M 64,47 L 114,72 L 64,97 L 14,72 Z" fill="url(#keskaGrad)" />
    <path d="M 64,47 L 114,72 L 64,97 L 14,72 Z" fill="#0F172A" fill-opacity="0.05" />
    <path d="M 64,47 L 114,72 L 64,97 L 14,72 Z" stroke="#ffffff" stroke-opacity="0.3" stroke-width="0.5" fill="none" stroke-linejoin="round" />
  </g>
  <g id="skill-module" filter="url(#floatShadow)">
    <path d="M 14,42 L 64,67 L 64,79 L 14,54 Z" fill="url(#keskaGrad)" />
    <path d="M 14,42 L 64,67 L 64,79 L 14,54 Z" fill="#0F172A" fill-opacity="0.2" />
    <path d="M 64,67 L 114,42 L 114,54 L 64,79 Z" fill="url(#keskaGrad)" />
    <path d="M 64,67 L 114,42 L 114,54 L 64,79 Z" fill="#0F172A" fill-opacity="0.05" />
    <path d="M 64,17 L 114,42 L 64,67 L 14,42 Z" fill="url(#keskaGrad)" />
    <path d="M 64,17 L 114,42 L 64,67 L 14,42 Z" fill="#ffffff" fill-opacity="0.05" />
    <path d="M 64,17 L 114,42 L 64,67 L 14,42 Z" stroke="#ffffff" stroke-opacity="0.5" stroke-width="1" fill="none" stroke-linejoin="round" />
    <path d="M 68,31 L 56,43 L 62,44 L 60,53 L 72,41 L 66,40 Z" fill="#ffffff" fill-opacity="0.95" />
  </g>
</svg>
